<?xml version="1.0" encoding="utf-8"?>
<!-- Generator: Adobe Illustrator 26.3.1, SVG Export Plug-In . SVG Version: 6.00 Build 0)  -->
<svg version="1.1" id="Layer_1" xmlns="http://www.w3.org/2000/svg" xmlns:xlink="http://www.w3.org/1999/xlink" x="0px" y="0px"
	 viewBox="0 0 999 999" style="enable-background:new 0 0 999 999;" xml:space="preserve">
<style type="text/css">
	.st0{fill:#F2F2F2;}
	.st1{fill:#03743C;}
	.st2{fill:#2087C9;}
	.st3{fill:#C61E2B;}
	.st4{fill:#FAC03B;}
</style>
<rect class="st0" width="999" height="999"/>
<g>
	<g transform="translate(270,54) scale(4.635)">
		<path d="M6,6H0V3c0-1.7,1.3-3,3-3l0,0c1.7,0,3,1.3,3,3V6z"/>
	</g>
	<g transform="translate(324,54) scale(4.635)">
		<circle cx="3" cy="3" r="3"/>
	</g>
	<g transform="translate(378,54) scale(4.635)">
		<path d="M6,6H3C1.3,6,0,4.7,0,3l0,0c0-1.7,1.3-3,3-3h3V6z"/>
	</g>
	<g transform="translate(405,54) scale(4.635)">
		<rect x="0" y="0" width="6" height="6"/>
	</g>
	<g transform="translate(432,54) scale(4.635)">
		<path d="M3,6H0V0h3c1.7,0,3,1.3,3,3l0,0C6,4.7,4.7,6,3,6z"/>
	</g>
	<g transform="translate(513,54) scale(4.635)">
		<path d="M6,6H0V3c0-1.7,1.3-3,3-3h3V6z"/>
	</g>
	<g transform="translate(540,54) scale(4.635)">
		<rect x="0" y="0" width="6" height="6"/>
	</g>
	<g transform="translate(567,54) scale(4.635)">
		<path d="M6,6H0V0h3c1.7,0,3,1.3,3,3V6z"/>
	</g>
	<g transform="translate(675,54) scale(4.635)">
		<path d="M6,6H3C1.3,6,0,4.7,0,3l0,0c0-1.7,1.3-3,3-3h3V6z"/>
	</g>
	<g transform="translate(702,54) scale(4.635)">
		<path d="M6,6H0V0h3c1.7,0,3,1.3,3,3V6z"/>
	</g>
	<g transform="translate(270,81) scale(4.635)">
		<rect x="0" y="0" width="6" height="6"/>
	</g>
	<g transform="translate(351,81) scale(4.635)">
		<circle cx="3" cy="3" r="3"/>
	</g>
	<g transform="translate(459,81) scale(4.635)">
		<path d="M6,6H3C1.3,6,0,4.7,0,3l0,0c0-1.7,1.3-3,3-3h3V6z"/>
	</g>
	<g transform="translate(486,81) scale(4.635)">
		<rect x="0" y="0" width="6" height="6"/>
	</g>
	<g transform="translate(513,81) scale(4.635)">
		<path d="M3,6H0V0h6v3C6,4.7,4.7,6,3,6z"/>
	</g>
	<g transform="translate(567,81) scale(4.635)">
		<path d="M3,6L3,6C1.3,6,0,4.7,0,3V0h6v3C6,4.7,4.7,6,3,6z"/>
	</g>
	<g transform="translate(648,81) scale(4.635)">
		<circle cx="3" cy="3" r="3"/>
	</g>
	<g transform="translate(702,81) scale(4.635)">
		<rect x="0" y="0" width="6" height="6"/>
	</g>
	<g transform="translate(270,108) scale(4.635)">
		<path d="M6,6H3C1.3,6,0,4.7,0,3V0h6V6z"/>
	</g>
	<g transform="translate(297,108) scale(4.635)">
		<rect x="0" y="0" width="6" height="6"/>
	</g>
	<g transform="translate(324,108) scale(4.635)">
		<path d="M3,6H0V0h3c1.7,0,3,1.3,3,3l0,0C6,4.7,4.7,6,3,6z"/>
	</g>
	<g transform="translate(378,108) scale(4.635)">
		<path d="M6,6H0V3c0-1.7,1.3-3,3-3l0,0c1.7,0,3,1.3,3,3V6z"/>
	</g>
	<g transform="translate(432,108) scale(4.635)">
		<path d="M6,6H0V3c0-1.7,1.3-3,3-3l0,0c1.7,0,3,1.3,3,3V6z"/>
	</g>
	<g transform="translate(540,108) scale(4.635)">
		<circle cx="3" cy="3" r="3"/>
	</g>
	<g transform="translate(594,108) scale(4.635)">
		<path d="M6,6H0V3c0-1.7,1.3-3,3-3h3V6z"/>
	</g>
	<g transform="translate(621,108) scale(4.635)">
		<path d="M3,6H0V0h3c1.7,0,3,1.3,3,3l0,0C6,4.7,4.7,6,3,6z"/>
	</g>
	<g transform="translate(675,108) scale(4.635)">
		<path d="M6,6H0V3c0-1.7,1.3-3,3-3h3V6z"/>
	</g>
	<g transform="translate(702,108) scale(4.635)">
		<path d="M3,6H0V0h6v3C6,4.7,4.7,6,3,6z"/>
	</g>
	<g transform="translate(297,135) scale(4.635)">
		<rect x="0" y="0" width="6" height="6"/>
	</g>
	<g transform="translate(378,135) scale(4.635)">
		<path d="M3,6L3,6C1.3,6,0,4.7,0,3V0h6v3C6,4.7,4.7,6,3,6z"/>
	</g>
	<g transform="translate(432,135) scale(4.635)">
		<rect x="0" y="0" width="6" height="6"/>
	</g>
	<g transform="translate(513,135) scale(4.635)">
		<circle cx="3" cy="3" r="3"/>
	</g>
	<g transform="translate(567,135) scale(4.635)">
		<path d="M6,6H3C1.3,6,0,4.7,0,3l0,0c0-1.7,1.3-3,3-3h3V6z"/>
	</g>
	<g transform="translate(594,135) scale(4.635)">
		<rect x="0" y="0" width="6" height="6"/>
	</g>
	<g transform="translate(648,135) scale(4.635)">
		<path d="M6,6H3C1.3,6,0,4.7,0,3l0,0c0-1.7,1.3-3,3-3h3V6z"/>
	</g>
	<g transform="translate(675,135) scale(4.635)">
		<rect x="0" y="0" width="6" height="6"/>
	</g>
	<g transform="translate(297,162) scale(4.635)">
		<rect x="0" y="0" width="6" height="6"/>
	</g>
	<g transform="translate(324,162) scale(4.635)">
		<rect x="0" y="0" width="6" height="6"/>
	</g>
	<g transform="translate(351,162) scale(4.635)">
		<path d="M6,6H0V0h3c1.7,0,3,1.3,3,3V6z"/>
	</g>
	<g transform="translate(405,162) scale(4.635)">
		<path d="M6,6H0V3c0-1.7,1.3-3,3-3h3V6z"/>
	</g>
	<g transform="translate(432,162) scale(4.635)">
		<rect x="0" y="0" width="6" height="6"/>
	</g>
	<g transform="translate(540,162) scale(4.635)">
		<circle cx="3" cy="3" r="3"/>
	</g>
	<g transform="translate(594,162) scale(4.635)">
		<path d="M3,6L3,6C1.3,6,0,4.7,0,3V0h6v3C6,4.7,4.7,6,3,6z"/>
	</g>
	<g transform="translate(675,162) scale(4.635)">
		<path d="M3,6L3,6C1.3,6,0,4.7,0,3V0h6v3C6,4.7,4.7,6,3,6z"/>
	</g>
	<g transform="translate(270,189) scale(4.635)">
		<path d="M6,6H0V3c0-1.7,1.3-3,3-3h3V6z"/>
	</g>
	<g transform="translate(297,189) scale(4.635)">
		<path d="M3,6H0V0h6v3C6,4.7,4.7,6,3,6z"/>
	</g>
	<g transform="translate(351,189) scale(4.635)">
		<path d="M6,6H3C1.3,6,0,4.7,0,3V0h6V6z"/>
	</g>
	<g transform="translate(378,189) scale(4.635)">
		<rect x="0" y="0" width="6" height="6"/>
	</g>
	<g transform="translate(405,189) scale(4.635)">
		<rect x="0" y="0" width="6" height="6"/>
	</g>
	<g transform="translate(432,189) scale(4.635)">
		<rect x="0" y="0" width="6" height="6"/>
	</g>
	<g transform="translate(459,189) scale(4.635)">
		<path d="M3,6H0V0h3c1.7,0,3,1.3,3,3l0,0C6,4.7,4.7,6,3,6z"/>
	</g>
	<g transform="translate(567,189) scale(4.635)">
		<circle cx="3" cy="3" r="3"/>
	</g>
	<g transform="translate(621,189) scale(4.635)">
		<path d="M6,6H3C1.3,6,0,4.7,0,3l0,0c0-1.7,1.3-3,3-3h3V6z"/>
	</g>
	<g transform="translate(648,189) scale(4.635)">
		<path d="M6,6H0V0h3c1.7,0,3,1.3,3,3V6z"/>
	</g>
	<g transform="translate(270,216) scale(4.635)">
		<rect x="0" y="0" width="6" height="6"/>
	</g>
	<g transform="translate(324,216) scale(4.635)">
		<path d="M6,6H0V3c0-1.7,1.3-3,3-3l0,0c1.7,0,3,1.3,3,3V6z"/>
	</g>
	<g transform="translate(378,216) scale(4.635)">
		<path d="M3,6L3,6C1.3,6,0,4.7,0,3V0h6v3C6,4.7,4.7,6,3,6z"/>
	</g>
	<g transform="translate(432,216) scale(4.635)">
		<path d="M3,6L3,6C1.3,6,0,4.7,0,3V0h6v3C6,4.7,4.7,6,3,6z"/>
	</g>
	<g transform="translate(486,216) scale(4.635)">
		<path d="M6,6H0V3c0-1.7,1.3-3,3-3l0,0c1.7,0,3,1.3,3,3V6z"/>
	</g>
	<g transform="translate(540,216) scale(4.635)">
		<path d="M6,6H0V3c0-1.7,1.3-3,3-3l0,0c1.7,0,3,1.3,3,3V6z"/>
	</g>
	<g transform="translate(594,216) scale(4.635)">
		<circle cx="3" cy="3" r="3"/>
	</g>
	<g transform="translate(648,216) scale(4.635)">
		<path d="M3,6L3,6C1.3,6,0,4.7,0,3V0h6v3C6,4.7,4.7,6,3,6z"/>
	</g>
	<g transform="translate(702,216) scale(4.635)">
		<path d="M6,6H0V3c0-1.7,1.3-3,3-3l0,0c1.7,0,3,1.3,3,3V6z"/>
	</g>
	<g transform="translate(270,243) scale(4.635)">
		<rect x="0" y="0" width="6" height="6"/>
	</g>
	<g transform="translate(297,243) scale(4.635)">
		<rect x="0" y="0" width="6" height="6"/>
	</g>
	<g transform="translate(324,243) scale(4.635)">
		<rect x="0" y="0" width="6" height="6"/>
	</g>
	<g transform="translate(351,243) scale(4.635)">
		<path d="M6,6H0V0h3c1.7,0,3,1.3,3,3V6z"/>
	</g>
	<g transform="translate(459,243) scale(4.635)">
		<path d="M6,6H0V3c0-1.7,1.3-3,3-3h3V6z"/>
	</g>
	<g transform="translate(486,243) scale(4.635)">
		<path d="M3,6H0V0h6v3C6,4.7,4.7,6,3,6z"/>
	</g>
	<g transform="translate(540,243) scale(4.635)">
		<path d="M6,6H3C1.3,6,0,4.7,0,3V0h6V6z"/>
	</g>
	<g transform="translate(567,243) scale(4.635)">
		<path d="M6,6H0V0h3c1.7,0,3,1.3,3,3V6z"/>
	</g>
	<g transform="translate(621,243) scale(4.635)">
		<circle cx="3" cy="3" r="3"/>
	</g>
	<g transform="translate(702,243) scale(4.635)">
		<rect x="0" y="0" width="6" height="6"/>
	</g>
	<g transform="translate(108,270) scale(4.635)">
		<path d="M6,6H3C1.3,6,0,4.7,0,3l0,0c0-1.7,1.3-3,3-3h3V6z"/>
	</g>
	<g transform="translate(135,270) scale(4.635)">
		<rect x="0" y="0" width="6" height="6"/>
	</g>
	<g transform="translate(162,270) scale(4.635)">
		<path d="M6,6H0V0h3c1.7,0,3,1.3,3,3V6z"/>
	</g>
	<g transform="translate(216,270) scale(4.635)">
		<circle cx="3" cy="3" r="3"/>
	</g>
	<g transform="translate(270,270) scale(4.635)">
		<rect x="0" y="0" width="6" height="6"/>
	</g>
	<g transform="translate(297,270) scale(4.635)">
		<rect x="0" y="0" width="6" height="6"/>
	</g>
	<g transform="translate(324,270) scale(4.635)">
		<rect x="0" y="0" width="6" height="6"/>
	</g>
	<g transform="translate(351,270) scale(4.635)">
		<path d="M3,6H0V0h6v3C6,4.7,4.7,6,3,6z"/>
	</g>
	<g transform="translate(459,270) scale(4.635)">
		<rect x="0" y="0" width="6" height="6"/>
	</g>
	<g transform="translate(567,270) scale(4.635)">
		<path d="M3,6L3,6C1.3,6,0,4.7,0,3V0h6v3C6,4.7,4.7,6,3,6z"/>
	</g>
	<g transform="translate(648,270) scale(4.635)">
		<circle cx="3" cy="3" r="3"/>
	</g>
	<g transform="translate(702,270) scale(4.635)">
		<path d="M6,6H3C1.3,6,0,4.7,0,3V0h6V6z"/>
	</g>
	<g transform="translate(729,270) scale(4.635)">
		<rect x="0" y="0" width="6" height="6"/>
	</g>
	<g transform="translate(756,270) scale(4.635)">
		<rect x="0" y="0" width="6" height="6"/>
	</g>
	<g transform="translate(783,270) scale(4.635)">
		<path d="M3,6H0V0h3c1.7,0,3,1.3,3,3l0,0C6,4.7,4.7,6,3,6z"/>
	</g>
	<g transform="translate(864,270) scale(4.635)">
		<path d="M6,6H3C1.3,6,0,4.7,0,3l0,0c0-1.7,1.3-3,3-3h3V6z"/>
	</g>
	<g transform="translate(891,270) scale(4.635)">
		<rect x="0" y="0" width="6" height="6"/>
	</g>
	<g transform="translate(918,270) scale(4.635)">
		<path d="M6,6H0V0h3c1.7,0,3,1.3,3,3V6z"/>
	</g>
	<g transform="translate(81,297) scale(4.635)">
		<path d="M6,6H0V3c0-1.7,1.3-3,3-3l0,0c1.7,0,3,1.3,3,3V6z"/>
	</g>
	<g transform="translate(135,297) scale(4.635)">
		<rect x="0" y="0" width="6" height="6"/>
	</g>
	<g transform="translate(162,297) scale(4.635)">
		<path d="M3,6H0V0h6v3C6,4.7,4.7,6,3,6z"/>
	</g>
	<g transform="translate(243,297) scale(4.635)">
		<path d="M6,6H3C1.3,6,0,4.7,0,3l0,0c0-1.7,1.3-3,3-3h3V6z"/>
	</g>
	<g transform="translate(270,297) scale(4.635)">
		<rect x="0" y="0" width="6" height="6"/>
	</g>
	<g transform="translate(297,297) scale(4.635)">
		<path d="M3,6H0V0h6v3C6,4.7,4.7,6,3,6z"/>
	</g>
	<g transform="translate(405,297) scale(4.635)">
		<circle cx="3" cy="3" r="3"/>
	</g>
	<g transform="translate(459,297) scale(4.635)">
		<rect x="0" y="0" width="6" height="6"/>
	</g>
	<g transform="translate(621,297) scale(4.635)">
		<circle cx="3" cy="3" r="3"/>
	</g>
	<g transform="translate(675,297) scale(4.635)">
		<circle cx="3" cy="3" r="3"/>
	</g>
	<g transform="translate(729,297) scale(4.635)">
		<path d="M6,6H3C1.3,6,0,4.7,0,3V0h6V6z"/>
	</g>
	<g transform="translate(756,297) scale(4.635)">
		<rect x="0" y="0" width="6" height="6"/>
	</g>
	<g transform="translate(837,297) scale(4.635)">
		<path d="M6,6H0V3c0-1.7,1.3-3,3-3l0,0c1.7,0,3,1.3,3,3V6z"/>
	</g>
	<g transform="translate(918,297) scale(4.635)">
		<path d="M3,6L3,6C1.3,6,0,4.7,0,3V0h6v3C6,4.7,4.7,6,3,6z"/>
	</g>
	<g transform="translate(81,324) scale(4.635)">
		<rect x="0" y="0" width="6" height="6"/>
	</g>
	<g transform="translate(108,324) scale(4.635)">
		<rect x="0" y="0" width="6" height="6"/>
	</g>
	<g transform="translate(135,324) scale(4.635)">
		<path d="M3,6H0V0h6v3C6,4.7,4.7,6,3,6z"/>
	</g>
	<g transform="translate(189,324) scale(4.635)">
		<path d="M6,6H0V3c0-1.7,1.3-3,3-3h3V6z"/>
	</g>
	<g transform="translate(216,324) scale(4.635)">
		<path d="M3,6H0V0h3c1.7,0,3,1.3,3,3l0,0C6,4.7,4.7,6,3,6z"/>
	</g>
	<g transform="translate(324,324) scale(4.635)">
		<path d="M6,6H3C1.3,6,0,4.7,0,3l0,0c0-1.7,1.3-3,3-3h3V6z"/>
	</g>
	<g transform="translate(351,324) scale(4.635)">
		<path d="M3,6H0V0h3c1.7,0,3,1.3,3,3l0,0C6,4.7,4.7,6,3,6z"/>
	</g>
	<g transform="translate(459,324) scale(4.635)">
		<path d="M3,6L3,6C1.3,6,0,4.7,0,3V0h6v3C6,4.7,4.7,6,3,6z"/>
	</g>
	<g transform="translate(513,324) scale(4.635)">
		<circle cx="3" cy="3" r="3"/>
	</g>
	<g transform="translate(756,324) scale(4.635)">
		<path d="M6,6H3C1.3,6,0,4.7,0,3V0h6V6z"/>
	</g>
	<g transform="translate(783,324) scale(4.635)">
		<path d="M3,6H0V0h3c1.7,0,3,1.3,3,3l0,0C6,4.7,4.7,6,3,6z"/>
	</g>
	<g transform="translate(837,324) scale(4.635)">
		<path d="M6,6H3C1.3,6,0,4.7,0,3V0h6V6z"/>
	</g>
	<g transform="translate(864,324) scale(4.635)">
		<rect x="0" y="0" width="6" height="6"/>
	</g>
	<g transform="translate(891,324) scale(4.635)">
		<path d="M6,6H0V0h3c1.7,0,3,1.3,3,3V6z"/>
	</g>
	<g transform="translate(54,351) scale(4.635)">
		<path d="M6,6H0V3c0-1.7,1.3-3,3-3h3V6z"/>
	</g>
	<g transform="translate(81,351) scale(4.635)">
		<rect x="0" y="0" width="6" height="6"/>
	</g>
	<g transform="translate(162,351) scale(4.635)">
		<path d="M6,6H3C1.3,6,0,4.7,0,3l0,0c0-1.7,1.3-3,3-3h3V6z"/>
	</g>
	<g transform="translate(189,351) scale(4.635)">
		<rect x="0" y="0" width="6" height="6"/>
	</g>
	<g transform="translate(243,351) scale(4.635)">
		<circle cx="3" cy="3" r="3"/>
	</g>
	<g transform="translate(297,351) scale(4.635)">
		<circle cx="3" cy="3" r="3"/>
	</g>
	<g transform="translate(378,351) scale(4.635)">
		<path d="M6,6H3C1.3,6,0,4.7,0,3l0,0c0-1.7,1.3-3,3-3h3V6z"/>
	</g>
	<g transform="translate(405,351) scale(4.635)">
		<path d="M3,6H0V0h3c1.7,0,3,1.3,3,3l0,0C6,4.7,4.7,6,3,6z"/>
	</g>
	<g transform="translate(540,351) scale(4.635)">
		<path d="M6,6H0V3c0-1.7,1.3-3,3-3l0,0c1.7,0,3,1.3,3,3V6z"/>
	</g>
	<g transform="translate(621,351) scale(4.635)">
		<path d="M6,6H0V3c0-1.7,1.3-3,3-3h3V6z"/>
	</g>
	<g transform="translate(648,351) scale(4.635)">
		<rect x="0" y="0" width="6" height="6"/>
	</g>
	<g transform="translate(675,351) scale(4.635)">
		<path d="M3,6H0V0h3c1.7,0,3,1.3,3,3l0,0C6,4.7,4.7,6,3,6z"/>
	</g>
	<g transform="translate(864,351) scale(4.635)">
		<path d="M6,6H3C1.3,6,0,4.7,0,3V0h6V6z"/>
	</g>
	<g transform="translate(891,351) scale(4.635)">
		<rect x="0" y="0" width="6" height="6"/>
	</g>
	<g transform="translate(918,351) scale(4.635)">
		<path d="M3,6H0V0h3c1.7,0,3,1.3,3,3l0,0C6,4.7,4.7,6,3,6z"/>
	</g>
	<g transform="translate(54,378) scale(4.635)">
		<path d="M6,6H3C1.3,6,0,4.7,0,3V0h6V6z"/>
	</g>
	<g transform="translate(81,378) scale(4.635)">
		<rect x="0" y="0" width="6" height="6"/>
	</g>
	<g transform="translate(108,378) scale(4.635)">
		<path d="M6,6H0V0h3c1.7,0,3,1.3,3,3V6z"/>
	</g>
	<g transform="translate(189,378) scale(4.635)">
		<path d="M6,6H3C1.3,6,0,4.7,0,3V0h6V6z"/>
	</g>
	<g transform="translate(216,378) scale(4.635)">
		<path d="M3,6H0V0h3c1.7,0,3,1.3,3,3l0,0C6,4.7,4.7,6,3,6z"/>
	</g>
	<g transform="translate(270,378) scale(4.635)">
		<circle cx="3" cy="3" r="3"/>
	</g>
	<g transform="translate(324,378) scale(4.635)">
		<path d="M6,6H0V3c0-1.7,1.3-3,3-3l0,0c1.7,0,3,1.3,3,3V6z"/>
	</g>
	<g transform="translate(486,378) scale(4.635)">
		<path d="M6,6H0V3c0-1.7,1.3-3,3-3l0,0c1.7,0,3,1.3,3,3V6z"/>
	</g>
	<g transform="translate(540,378) scale(4.635)">
		<path d="M6,6H3C1.3,6,0,4.7,0,3V0h6V6z"/>
	</g>
	<g transform="translate(567,378) scale(4.635)">
		<rect x="0" y="0" width="6" height="6"/>
	</g>
	<g transform="translate(594,378) scale(4.635)">
		<rect x="0" y="0" width="6" height="6"/>
	</g>
	<g transform="translate(621,378) scale(4.635)">
		<path d="M3,6H0V0h6v3C6,4.7,4.7,6,3,6z"/>
	</g>
	<g transform="translate(702,378) scale(4.635)">
		<path d="M6,6H0V3c0-1.7,1.3-3,3-3h3V6z"/>
	</g>
	<g transform="translate(729,378) scale(4.635)">
		<path d="M6,6H0V0h3c1.7,0,3,1.3,3,3V6z"/>
	</g>
	<g transform="translate(810,378) scale(4.635)">
		<circle cx="3" cy="3" r="3"/>
	</g>
	<g transform="translate(891,378) scale(4.635)">
		<path d="M3,6L3,6C1.3,6,0,4.7,0,3V0h6v3C6,4.7,4.7,6,3,6z"/>
	</g>
	<g transform="translate(108,405) scale(4.635)">
		<path d="M6,6H3C1.3,6,0,4.7,0,3V0h6V6z"/>
	</g>
	<g transform="translate(135,405) scale(4.635)">
		<path d="M6,6H0V0h3c1.7,0,3,1.3,3,3V6z"/>
	</g>
	<g transform="translate(243,405) scale(4.635)">
		<circle cx="3" cy="3" r="3"/>
	</g>
	<g transform="translate(297,405) scale(4.635)">
		<path d="M6,6H0V3c0-1.7,1.3-3,3-3h3V6z"/>
	</g>
	<g transform="translate(324,405) scale(4.635)">
		<rect x="0" y="0" width="6" height="6"/>
	</g>
	<g transform="translate(351,405) scale(4.635)">
		<path d="M6,6H0V0h3c1.7,0,3,1.3,3,3V6z"/>
	</g>
	<g transform="translate(486,405) scale(4.635)">
		<rect x="0" y="0" width="6" height="6"/>
	</g>
	<g transform="translate(594,405) scale(4.635)">
		<path d="M3,6L3,6C1.3,6,0,4.7,0,3V0h6v3C6,4.7,4.7,6,3,6z"/>
	</g>
	<g transform="translate(675,405) scale(4.635)">
		<path d="M6,6H3C1.3,6,0,4.7,0,3l0,0c0-1.7,1.3-3,3-3h3V6z"/>
	</g>
	<g transform="translate(702,405) scale(4.635)">
		<rect x="0" y="0" width="6" height="6"/>
	</g>
	<g transform="translate(729,405) scale(4.635)">
		<rect x="0" y="0" width="6" height="6"/>
	</g>
	<g transform="translate(756,405) scale(4.635)">
		<path d="M6,6H0V0h3c1.7,0,3,1.3,3,3V6z"/>
	</g>
	<g transform="translate(837,405) scale(4.635)">
		<path d="M6,6H0V3c0-1.7,1.3-3,3-3l0,0c1.7,0,3,1.3,3,3V6z"/>
	</g>
	<g transform="translate(918,405) scale(4.635)">
		<circle cx="3" cy="3" r="3"/>
	</g>
	<g transform="translate(135,432) scale(4.635)">
		<path d="M6,6H3C1.3,6,0,4.7,0,3V0h6V6z"/>
	</g>
	<g transform="translate(162,432) scale(4.635)">
		<rect x="0" y="0" width="6" height="6"/>
	</g>
	<g transform="translate(189,432) scale(4.635)">
		<rect x="0" y="0" width="6" height="6"/>
	</g>
	<g transform="translate(216,432) scale(4.635)">
		<path d="M3,6H0V0h3c1.7,0,3,1.3,3,3l0,0C6,4.7,4.7,6,3,6z"/>
	</g>
	<g transform="translate(297,432) scale(4.635)">
		<rect x="0" y="0" width="6" height="6"/>
	</g>
	<g transform="translate(351,432) scale(4.635)">
		<rect x="0" y="0" width="6" height="6"/>
	</g>
	<g transform="translate(405,432) scale(4.635)">
		<path d="M6,6H3C1.3,6,0,4.7,0,3l0,0c0-1.7,1.3-3,3-3h3V6z"/>
	</g>
	<g transform="translate(432,432) scale(4.635)">
		<path d="M6,6H0V0h3c1.7,0,3,1.3,3,3V6z"/>
	</g>
	<g transform="translate(486,432) scale(4.635)">
		<path d="M3,6L3,6C1.3,6,0,4.7,0,3V0h6v3C6,4.7,4.7,6,3,6z"/>
	</g>
	<g transform="translate(540,432) scale(4.635)">
		<path d="M6,6H0V3c0-1.7,1.3-3,3-3h3V6z"/>
	</g>
	<g transform="translate(567,432) scale(4.635)">
		<path d="M6,6H0V0h3c1.7,0,3,1.3,3,3V6z"/>
	</g>
	<g transform="translate(648,432) scale(4.635)">
		<path d="M6,6H0V3c0-1.7,1.3-3,3-3l0,0c1.7,0,3,1.3,3,3V6z"/>
	</g>
	<g transform="translate(702,432) scale(4.635)">
		<rect x="0" y="0" width="6" height="6"/>
	</g>
	<g transform="translate(729,432) scale(4.635)">
		<rect x="0" y="0" width="6" height="6"/>
	</g>
	<g transform="translate(756,432) scale(4.635)">
		<rect x="0" y="0" width="6" height="6"/>
	</g>
	<g transform="translate(837,432) scale(4.635)">
		<rect x="0" y="0" width="6" height="6"/>
	</g>
	<g transform="translate(864,432) scale(4.635)">
		<rect x="0" y="0" width="6" height="6"/>
	</g>
	<g transform="translate(891,432) scale(4.635)">
		<path d="M6,6H0V0h3c1.7,0,3,1.3,3,3V6z"/>
	</g>
	<g transform="translate(270,459) scale(4.635)">
		<path d="M6,6H0V3c0-1.7,1.3-3,3-3h3V6z"/>
	</g>
	<g transform="translate(297,459) scale(4.635)">
		<rect x="0" y="0" width="6" height="6"/>
	</g>
	<g transform="translate(324,459) scale(4.635)">
		<rect x="0" y="0" width="6" height="6"/>
	</g>
	<g transform="translate(351,459) scale(4.635)">
		<path d="M3,6H0V0h6v3C6,4.7,4.7,6,3,6z"/>
	</g>
	<g transform="translate(432,459) scale(4.635)">
		<rect x="0" y="0" width="6" height="6"/>
	</g>
	<g transform="translate(459,459) scale(4.635)">
		<path d="M6,6H0V0h3c1.7,0,3,1.3,3,3V6z"/>
	</g>
	<g transform="translate(513,459) scale(4.635)">
		<path d="M6,6H3C1.3,6,0,4.7,0,3l0,0c0-1.7,1.3-3,3-3h3V6z"/>
	</g>
	<g transform="translate(540,459) scale(4.635)">
		<rect x="0" y="0" width="6" height="6"/>
	</g>
	<g transform="translate(567,459) scale(4.635)">
		<rect x="0" y="0" width="6" height="6"/>
	</g>
	<g transform="translate(594,459) scale(4.635)">
		<rect x="0" y="0" width="6" height="6"/>
	</g>
	<g transform="translate(621,459) scale(4.635)">
		<rect x="0" y="0" width="6" height="6"/>
	</g>
	<g transform="translate(648,459) scale(4.635)">
		<rect x="0" y="0" width="6" height="6"/>
	</g>
	<g transform="translate(675,459) scale(4.635)">
		<rect x="0" y="0" width="6" height="6"/>
	</g>
	<g transform="translate(702,459) scale(4.635)">
		<rect x="0" y="0" width="6" height="6"/>
	</g>
	<g transform="translate(729,459) scale(4.635)">
		<rect x="0" y="0" width="6" height="6"/>
	</g>
	<g transform="translate(756,459) scale(4.635)">
		<rect x="0" y="0" width="6" height="6"/>
	</g>
	<g transform="translate(783,459) scale(4.635)">
		<path d="M6,6H0V0h3c1.7,0,3,1.3,3,3V6z"/>
	</g>
	<g transform="translate(837,459) scale(4.635)">
		<path d="M6,6H3C1.3,6,0,4.7,0,3V0h6V6z"/>
	</g>
	<g transform="translate(864,459) scale(4.635)">
		<rect x="0" y="0" width="6" height="6"/>
	</g>
	<g transform="translate(891,459) scale(4.635)">
		<path d="M3,6H0V0h6v3C6,4.7,4.7,6,3,6z"/>
	</g>
	<g transform="translate(162,486) scale(4.635)">
		<path d="M6,6H0V3c0-1.7,1.3-3,3-3h3V6z"/>
	</g>
	<g transform="translate(189,486) scale(4.635)">
		<rect x="0" y="0" width="6" height="6"/>
	</g>
	<g transform="translate(216,486) scale(4.635)">
		<path d="M3,6H0V0h3c1.7,0,3,1.3,3,3l0,0C6,4.7,4.7,6,3,6z"/>
	</g>
	<g transform="translate(270,486) scale(4.635)">
		<rect x="0" y="0" width="6" height="6"/>
	</g>
	<g transform="translate(324,486) scale(4.635)">
		<path d="M3,6L3,6C1.3,6,0,4.7,0,3V0h6v3C6,4.7,4.7,6,3,6z"/>
	</g>
	<g transform="translate(405,486) scale(4.635)">
		<path d="M6,6H0V3c0-1.7,1.3-3,3-3h3V6z"/>
	</g>
	<g transform="translate(432,486) scale(4.635)">
		<rect x="0" y="0" width="6" height="6"/>
	</g>
	<g transform="translate(459,486) scale(4.635)">
		<rect x="0" y="0" width="6" height="6"/>
	</g>
	<g transform="translate(486,486) scale(4.635)">
		<path d="M6,6H0V0h3c1.7,0,3,1.3,3,3V6z"/>
	</g>
	<g transform="translate(540,486) scale(4.635)">
		<rect x="0" y="0" width="6" height="6"/>
	</g>
	<g transform="translate(567,486) scale(4.635)">
		<rect x="0" y="0" width="6" height="6"/>
	</g>
	<g transform="translate(729,486) scale(4.635)">
		<rect x="0" y="0" width="6" height="6"/>
	</g>
	<g transform="translate(783,486) scale(4.635)">
		<path d="M6,6H3C1.3,6,0,4.7,0,3V0h6V6z"/>
	</g>
	<g transform="translate(810,486) scale(4.635)">
		<path d="M3,6H0V0h3c1.7,0,3,1.3,3,3l0,0C6,4.7,4.7,6,3,6z"/>
	</g>
	<g transform="translate(54,513) scale(4.635)">
		<path d="M6,6H3C1.3,6,0,4.7,0,3l0,0c0-1.7,1.3-3,3-3h3V6z"/>
	</g>
	<g transform="translate(81,513) scale(4.635)">
		<rect x="0" y="0" width="6" height="6"/>
	</g>
	<g transform="translate(108,513) scale(4.635)">
		<path d="M6,6H0V0h3c1.7,0,3,1.3,3,3V6z"/>
	</g>
	<g transform="translate(162,513) scale(4.635)">
		<rect x="0" y="0" width="6" height="6"/>
	</g>
	<g transform="translate(243,513) scale(4.635)">
		<path d="M6,6H3C1.3,6,0,4.7,0,3l0,0c0-1.7,1.3-3,3-3h3V6z"/>
	</g>
	<g transform="translate(270,513) scale(4.635)">
		<rect x="0" y="0" width="6" height="6"/>
	</g>
	<g transform="translate(297,513) scale(4.635)">
		<path d="M6,6H0V0h3c1.7,0,3,1.3,3,3V6z"/>
	</g>
	<g transform="translate(405,513) scale(4.635)">
		<path d="M6,6H3C1.3,6,0,4.7,0,3V0h6V6z"/>
	</g>
	<g transform="translate(432,513) scale(4.635)">
		<path d="M3,6H0V0h6v3C6,4.7,4.7,6,3,6z"/>
	</g>
	<g transform="translate(486,513) scale(4.635)">
		<path d="M6,6H3C1.3,6,0,4.7,0,3V0h6V6z"/>
	</g>
	<g transform="translate(513,513) scale(4.635)">
		<rect x="0" y="0" width="6" height="6"/>
	</g>
	<g transform="translate(540,513) scale(4.635)">
		<rect x="0" y="0" width="6" height="6"/>
	</g>
	<g transform="translate(567,513) scale(4.635)">
		<path d="M3,6H0V0h6v3C6,4.7,4.7,6,3,6z"/>
	</g>
	<g transform="translate(621,513) scale(4.635)">
		<circle cx="3" cy="3" r="3"/>
	</g>
	<g transform="translate(675,513) scale(4.635)">
		<path d="M6,6H3C1.3,6,0,4.7,0,3l0,0c0-1.7,1.3-3,3-3h3V6z"/>
	</g>
	<g transform="translate(702,513) scale(4.635)">
		<rect x="0" y="0" width="6" height="6"/>
	</g>
	<g transform="translate(729,513) scale(4.635)">
		<rect x="0" y="0" width="6" height="6"/>
	</g>
	<g transform="translate(756,513) scale(4.635)">
		<path d="M3,6H0V0h3c1.7,0,3,1.3,3,3l0,0C6,4.7,4.7,6,3,6z"/>
	</g>
	<g transform="translate(918,513) scale(4.635)">
		<circle cx="3" cy="3" r="3"/>
	</g>
	<g transform="translate(81,540) scale(4.635)">
		<rect x="0" y="0" width="6" height="6"/>
	</g>
	<g transform="translate(108,540) scale(4.635)">
		<rect x="0" y="0" width="6" height="6"/>
	</g>
	<g transform="translate(135,540) scale(4.635)">
		<rect x="0" y="0" width="6" height="6"/>
	</g>
	<g transform="translate(162,540) scale(4.635)">
		<path d="M3,6H0V0h6v3C6,4.7,4.7,6,3,6z"/>
	</g>
	<g transform="translate(216,540) scale(4.635)">
		<circle cx="3" cy="3" r="3"/>
	</g>
	<g transform="translate(270,540) scale(4.635)">
		<path d="M6,6H3C1.3,6,0,4.7,0,3V0h6V6z"/>
	</g>
	<g transform="translate(297,540) scale(4.635)">
		<rect x="0" y="0" width="6" height="6"/>
	</g>
	<g transform="translate(324,540) scale(4.635)">
		<path d="M3,6H0V0h3c1.7,0,3,1.3,3,3l0,0C6,4.7,4.7,6,3,6z"/>
	</g>
	<g transform="translate(378,540) scale(4.635)">
		<path d="M6,6H0V3c0-1.7,1.3-3,3-3l0,0c1.7,0,3,1.3,3,3V6z"/>
	</g>
	<g transform="translate(459,540) scale(4.635)">
		<circle cx="3" cy="3" r="3"/>
	</g>
	<g transform="translate(540,540) scale(4.635)">
		<path d="M3,6L3,6C1.3,6,0,4.7,0,3V0h6v3C6,4.7,4.7,6,3,6z"/>
	</g>
	<g transform="translate(594,540) scale(4.635)">
		<path d="M6,6H0V3c0-1.7,1.3-3,3-3l0,0c1.7,0,3,1.3,3,3V6z"/>
	</g>
	<g transform="translate(783,540) scale(4.635)">
		<circle cx="3" cy="3" r="3"/>
	</g>
	<g transform="translate(864,540) scale(4.635)">
		<path d="M6,6H0V3c0-1.7,1.3-3,3-3l0,0c1.7,0,3,1.3,3,3V6z"/>
	</g>
	<g transform="translate(54,567) scale(4.635)">
		<path d="M6,6H3C1.3,6,0,4.7,0,3l0,0c0-1.7,1.3-3,3-3h3V6z"/>
	</g>
	<g transform="translate(81,567) scale(4.635)">
		<rect x="0" y="0" width="6" height="6"/>
	</g>
	<g transform="translate(108,567) scale(4.635)">
		<rect x="0" y="0" width="6" height="6"/>
	</g>
	<g transform="translate(135,567) scale(4.635)">
		<path d="M3,6H0V0h6v3C6,4.7,4.7,6,3,6z"/>
	</g>
	<g transform="translate(189,567) scale(4.635)">
		<path d="M6,6H0V3c0-1.7,1.3-3,3-3l0,0c1.7,0,3,1.3,3,3V6z"/>
	</g>
	<g transform="translate(243,567) scale(4.635)">
		<path d="M6,6H0V3c0-1.7,1.3-3,3-3l0,0c1.7,0,3,1.3,3,3V6z"/>
	</g>
	<g transform="translate(297,567) scale(4.635)">
		<path d="M3,6L3,6C1.3,6,0,4.7,0,3V0h6v3C6,4.7,4.7,6,3,6z"/>
	</g>
	<g transform="translate(378,567) scale(4.635)">
		<rect x="0" y="0" width="6" height="6"/>
	</g>
	<g transform="translate(513,567) scale(4.635)">
		<path d="M6,6H0V3c0-1.7,1.3-3,3-3l0,0c1.7,0,3,1.3,3,3V6z"/>
	</g>
	<g transform="translate(567,567) scale(4.635)">
		<path d="M6,6H0V3c0-1.7,1.3-3,3-3h3V6z"/>
	</g>
	<g transform="translate(594,567) scale(4.635)">
		<rect x="0" y="0" width="6" height="6"/>
	</g>
	<g transform="translate(621,567) scale(4.635)">
		<rect x="0" y="0" width="6" height="6"/>
	</g>
	<g transform="translate(648,567) scale(4.635)">
		<rect x="0" y="0" width="6" height="6"/>
	</g>
	<g transform="translate(675,567) scale(4.635)">
		<rect x="0" y="0" width="6" height="6"/>
	</g>
	<g transform="translate(702,567) scale(4.635)">
		<path d="M6,6H0V0h3c1.7,0,3,1.3,3,3V6z"/>
	</g>
	<g transform="translate(756,567) scale(4.635)">
		<circle cx="3" cy="3" r="3"/>
	</g>
	<g transform="translate(837,567) scale(4.635)">
		<path d="M6,6H0V3c0-1.7,1.3-3,3-3h3V6z"/>
	</g>
	<g transform="translate(864,567) scale(4.635)">
		<rect x="0" y="0" width="6" height="6"/>
	</g>
	<g transform="translate(891,567) scale(4.635)">
		<rect x="0" y="0" width="6" height="6"/>
	</g>
	<g transform="translate(918,567) scale(4.635)">
		<path d="M3,6H0V0h3c1.7,0,3,1.3,3,3l0,0C6,4.7,4.7,6,3,6z"/>
	</g>
	<g transform="translate(189,594) scale(4.635)">
		<rect x="0" y="0" width="6" height="6"/>
	</g>
	<g transform="translate(216,594) scale(4.635)">
		<rect x="0" y="0" width="6" height="6"/>
	</g>
	<g transform="translate(243,594) scale(4.635)">
		<path d="M3,6H0V0h6v3C6,4.7,4.7,6,3,6z"/>
	</g>
	<g transform="translate(351,594) scale(4.635)">
		<path d="M6,6H3C1.3,6,0,4.7,0,3l0,0c0-1.7,1.3-3,3-3h3V6z"/>
	</g>
	<g transform="translate(378,594) scale(4.635)">
		<rect x="0" y="0" width="6" height="6"/>
	</g>
	<g transform="translate(405,594) scale(4.635)">
		<path d="M6,6H0V0h3c1.7,0,3,1.3,3,3V6z"/>
	</g>
	<g transform="translate(459,594) scale(4.635)">
		<path d="M6,6H0V3c0-1.7,1.3-3,3-3l0,0c1.7,0,3,1.3,3,3V6z"/>
	</g>
	<g transform="translate(513,594) scale(4.635)">
		<rect x="0" y="0" width="6" height="6"/>
	</g>
	<g transform="translate(540,594) scale(4.635)">
		<rect x="0" y="0" width="6" height="6"/>
	</g>
	<g transform="translate(567,594) scale(4.635)">
		<path d="M3,6H0V0h6v3C6,4.7,4.7,6,3,6z"/>
	</g>
	<g transform="translate(648,594) scale(4.635)">
		<path d="M3,6L3,6C1.3,6,0,4.7,0,3V0h6v3C6,4.7,4.7,6,3,6z"/>
	</g>
	<g transform="translate(702,594) scale(4.635)">
		<path d="M6,6H3C1.3,6,0,4.7,0,3V0h6V6z"/>
	</g>
	<g transform="translate(729,594) scale(4.635)">
		<path d="M3,6H0V0h3c1.7,0,3,1.3,3,3l0,0C6,4.7,4.7,6,3,6z"/>
	</g>
	<g transform="translate(783,594) scale(4.635)">
		<path d="M6,6H3C1.3,6,0,4.7,0,3l0,0c0-1.7,1.3-3,3-3h3V6z"/>
	</g>
	<g transform="translate(810,594) scale(4.635)">
		<rect x="0" y="0" width="6" height="6"/>
	</g>
	<g transform="translate(837,594) scale(4.635)">
		<path d="M3,6H0V0h6v3C6,4.7,4.7,6,3,6z"/>
	</g>
	<g transform="translate(54,621) scale(4.635)">
		<path d="M6,6H0V3c0-1.7,1.3-3,3-3h3V6z"/>
	</g>
	<g transform="translate(81,621) scale(4.635)">
		<rect x="0" y="0" width="6" height="6"/>
	</g>
	<g transform="translate(108,621) scale(4.635)">
		<path d="M6,6H0V0h3c1.7,0,3,1.3,3,3V6z"/>
	</g>
	<g transform="translate(189,621) scale(4.635)">
		<rect x="0" y="0" width="6" height="6"/>
	</g>
	<g transform="translate(270,621) scale(4.635)">
		<path d="M6,6H3C1.3,6,0,4.7,0,3l0,0c0-1.7,1.3-3,3-3h3V6z"/>
	</g>
	<g transform="translate(297,621) scale(4.635)">
		<path d="M3,6H0V0h3c1.7,0,3,1.3,3,3l0,0C6,4.7,4.7,6,3,6z"/>
	</g>
	<g transform="translate(378,621) scale(4.635)">
		<path d="M6,6H3C1.3,6,0,4.7,0,3V0h6V6z"/>
	</g>
	<g transform="translate(405,621) scale(4.635)">
		<rect x="0" y="0" width="6" height="6"/>
	</g>
	<g transform="translate(432,621) scale(4.635)">
		<rect x="0" y="0" width="6" height="6"/>
	</g>
	<g transform="translate(459,621) scale(4.635)">
		<rect x="0" y="0" width="6" height="6"/>
	</g>
	<g transform="translate(513,621) scale(4.635)">
		<rect x="0" y="0" width="6" height="6"/>
	</g>
	<g transform="translate(621,621) scale(4.635)">
		<path d="M6,6H0V3c0-1.7,1.3-3,3-3l0,0c1.7,0,3,1.3,3,3V6z"/>
	</g>
	<g transform="translate(675,621) scale(4.635)">
		<circle cx="3" cy="3" r="3"/>
	</g>
	<g transform="translate(756,621) scale(4.635)">
		<circle cx="3" cy="3" r="3"/>
	</g>
	<g transform="translate(918,621) scale(4.635)">
		<circle cx="3" cy="3" r="3"/>
	</g>
	<g transform="translate(54,648) scale(4.635)">
		<rect x="0" y="0" width="6" height="6"/>
	</g>
	<g transform="translate(108,648) scale(4.635)">
		<rect x="0" y="0" width="6" height="6"/>
	</g>
	<g transform="translate(189,648) scale(4.635)">
		<path d="M6,6H3C1.3,6,0,4.7,0,3V0h6V6z"/>
	</g>
	<g transform="translate(216,648) scale(4.635)">
		<path d="M3,6H0V0h3c1.7,0,3,1.3,3,3l0,0C6,4.7,4.7,6,3,6z"/>
	</g>
	<g transform="translate(324,648) scale(4.635)">
		<path d="M6,6H0V3c0-1.7,1.3-3,3-3l0,0c1.7,0,3,1.3,3,3V6z"/>
	</g>
	<g transform="translate(405,648) scale(4.635)">
		<rect x="0" y="0" width="6" height="6"/>
	</g>
	<g transform="translate(459,648) scale(4.635)">
		<rect x="0" y="0" width="6" height="6"/>
	</g>
	<g transform="translate(513,648) scale(4.635)">
		<path d="M3,6L3,6C1.3,6,0,4.7,0,3V0h6v3C6,4.7,4.7,6,3,6z"/>
	</g>
	<g transform="translate(594,648) scale(4.635)">
		<path d="M6,6H3C1.3,6,0,4.7,0,3l0,0c0-1.7,1.3-3,3-3h3V6z"/>
	</g>
	<g transform="translate(621,648) scale(4.635)">
		<rect x="0" y="0" width="6" height="6"/>
	</g>
	<g transform="translate(783,648) scale(4.635)">
		<circle cx="3" cy="3" r="3"/>
	</g>
	<g transform="translate(837,648) scale(4.635)">
		<path d="M6,6H0V3c0-1.7,1.3-3,3-3h3V6z"/>
	</g>
	<g transform="translate(864,648) scale(4.635)">
		<rect x="0" y="0" width="6" height="6"/>
	</g>
	<g transform="translate(891,648) scale(4.635)">
		<path d="M6,6H0V0h3c1.7,0,3,1.3,3,3V6z"/>
	</g>
	<g transform="translate(54,675) scale(4.635)">
		<rect x="0" y="0" width="6" height="6"/>
	</g>
	<g transform="translate(108,675) scale(4.635)">
		<path d="M6,6H3C1.3,6,0,4.7,0,3V0h6V6z"/>
	</g>
	<g transform="translate(135,675) scale(4.635)">
		<rect x="0" y="0" width="6" height="6"/>
	</g>
	<g transform="translate(162,675) scale(4.635)">
		<path d="M3,6H0V0h3c1.7,0,3,1.3,3,3l0,0C6,4.7,4.7,6,3,6z"/>
	</g>
	<g transform="translate(270,675) scale(4.635)">
		<path d="M6,6H0V3c0-1.7,1.3-3,3-3h3V6z"/>
	</g>
	<g transform="translate(297,675) scale(4.635)">
		<rect x="0" y="0" width="6" height="6"/>
	</g>
	<g transform="translate(324,675) scale(4.635)">
		<rect x="0" y="0" width="6" height="6"/>
	</g>
	<g transform="translate(378,675) scale(4.635)">
		<path d="M6,6H0V3c0-1.7,1.3-3,3-3h3V6z"/>
	</g>
	<g transform="translate(405,675) scale(4.635)">
		<rect x="0" y="0" width="6" height="6"/>
	</g>
	<g transform="translate(432,675) scale(4.635)">
		<rect x="0" y="0" width="6" height="6"/>
	</g>
	<g transform="translate(459,675) scale(4.635)">
		<rect x="0" y="0" width="6" height="6"/>
	</g>
	<g transform="translate(486,675) scale(4.635)">
		<path d="M6,6H0V0h3c1.7,0,3,1.3,3,3V6z"/>
	</g>
	<g transform="translate(540,675) scale(4.635)">
		<path d="M6,6H3C1.3,6,0,4.7,0,3l0,0c0-1.7,1.3-3,3-3h3V6z"/>
	</g>
	<g transform="translate(567,675) scale(4.635)">
		<path d="M6,6H0V0h3c1.7,0,3,1.3,3,3V6z"/>
	</g>
	<g transform="translate(621,675) scale(4.635)">
		<path d="M6,6H3C1.3,6,0,4.7,0,3V0h6V6z"/>
	</g>
	<g transform="translate(648,675) scale(4.635)">
		<path d="M6,6H0V0h3c1.7,0,3,1.3,3,3V6z"/>
	</g>
	<g transform="translate(702,675) scale(4.635)">
		<path d="M6,6H0V3c0-1.7,1.3-3,3-3l0,0c1.7,0,3,1.3,3,3V6z"/>
	</g>
	<g transform="translate(837,675) scale(4.635)">
		<rect x="0" y="0" width="6" height="6"/>
	</g>
	<g transform="translate(864,675) scale(4.635)">
		<rect x="0" y="0" width="6" height="6"/>
	</g>
	<g transform="translate(891,675) scale(4.635)">
		<rect x="0" y="0" width="6" height="6"/>
	</g>
	<g transform="translate(918,675) scale(4.635)">
		<path d="M6,6H0V0h3c1.7,0,3,1.3,3,3V6z"/>
	</g>
	<g transform="translate(54,702) scale(4.635)">
		<path d="M3,6L3,6C1.3,6,0,4.7,0,3V0h6v3C6,4.7,4.7,6,3,6z"/>
	</g>
	<g transform="translate(135,702) scale(4.635)">
		<path d="M3,6L3,6C1.3,6,0,4.7,0,3V0h6v3C6,4.7,4.7,6,3,6z"/>
	</g>
	<g transform="translate(216,702) scale(4.635)">
		<path d="M6,6H3C1.3,6,0,4.7,0,3l0,0c0-1.7,1.3-3,3-3h3V6z"/>
	</g>
	<g transform="translate(243,702) scale(4.635)">
		<rect x="0" y="0" width="6" height="6"/>
	</g>
	<g transform="translate(270,702) scale(4.635)">
		<rect x="0" y="0" width="6" height="6"/>
	</g>
	<g transform="translate(297,702) scale(4.635)">
		<rect x="0" y="0" width="6" height="6"/>
	</g>
	<g transform="translate(324,702) scale(4.635)">
		<rect x="0" y="0" width="6" height="6"/>
	</g>
	<g transform="translate(351,702) scale(4.635)">
		<rect x="0" y="0" width="6" height="6"/>
	</g>
	<g transform="translate(378,702) scale(4.635)">
		<rect x="0" y="0" width="6" height="6"/>
	</g>
	<g transform="translate(405,702) scale(4.635)">
		<rect x="0" y="0" width="6" height="6"/>
	</g>
	<g transform="translate(432,702) scale(4.635)">
		<path d="M3,6H0V0h6v3C6,4.7,4.7,6,3,6z"/>
	</g>
	<g transform="translate(486,702) scale(4.635)">
		<path d="M3,6L3,6C1.3,6,0,4.7,0,3V0h6v3C6,4.7,4.7,6,3,6z"/>
	</g>
	<g transform="translate(567,702) scale(4.635)">
		<path d="M6,6H3C1.3,6,0,4.7,0,3V0h6V6z"/>
	</g>
	<g transform="translate(594,702) scale(4.635)">
		<path d="M6,6H0V0h3c1.7,0,3,1.3,3,3V6z"/>
	</g>
	<g transform="translate(648,702) scale(4.635)">
		<rect x="0" y="0" width="6" height="6"/>
	</g>
	<g transform="translate(675,702) scale(4.635)">
		<rect x="0" y="0" width="6" height="6"/>
	</g>
	<g transform="translate(837,702) scale(4.635)">
		<rect x="0" y="0" width="6" height="6"/>
	</g>
	<g transform="translate(891,702) scale(4.635)">
		<path d="M6,6H3C1.3,6,0,4.7,0,3V0h6V6z"/>
	</g>
	<g transform="translate(918,702) scale(4.635)">
		<rect x="0" y="0" width="6" height="6"/>
	</g>
	<g transform="translate(270,729) scale(4.635)">
		<path d="M3,6L3,6C1.3,6,0,4.7,0,3V0h6v3C6,4.7,4.7,6,3,6z"/>
	</g>
	<g transform="translate(324,729) scale(4.635)">
		<rect x="0" y="0" width="6" height="6"/>
	</g>
	<g transform="translate(378,729) scale(4.635)">
		<path d="M6,6H3C1.3,6,0,4.7,0,3V0h6V6z"/>
	</g>
	<g transform="translate(405,729) scale(4.635)">
		<path d="M3,6H0V0h6v3C6,4.7,4.7,6,3,6z"/>
	</g>
	<g transform="translate(459,729) scale(4.635)">
		<path d="M6,6H0V3c0-1.7,1.3-3,3-3l0,0c1.7,0,3,1.3,3,3V6z"/>
	</g>
	<g transform="translate(540,729) scale(4.635)">
		<path d="M6,6H0V3c0-1.7,1.3-3,3-3l0,0c1.7,0,3,1.3,3,3V6z"/>
	</g>
	<g transform="translate(594,729) scale(4.635)">
		<path d="M3,6L3,6C1.3,6,0,4.7,0,3V0h6v3C6,4.7,4.7,6,3,6z"/>
	</g>
	<g transform="translate(648,729) scale(4.635)">
		<rect x="0" y="0" width="6" height="6"/>
	</g>
	<g transform="translate(837,729) scale(4.635)">
		<rect x="0" y="0" width="6" height="6"/>
	</g>
	<g transform="translate(918,729) scale(4.635)">
		<path d="M3,6L3,6C1.3,6,0,4.7,0,3V0h6v3C6,4.7,4.7,6,3,6z"/>
	</g>
	<g transform="translate(324,756) scale(4.635)">
		<path d="M6,6H3C1.3,6,0,4.7,0,3V0h6V6z"/>
	</g>
	<g transform="translate(351,756) scale(4.635)">
		<path d="M3,6H0V0h3c1.7,0,3,1.3,3,3l0,0C6,4.7,4.7,6,3,6z"/>
	</g>
	<g transform="translate(459,756) scale(4.635)">
		<rect x="0" y="0" width="6" height="6"/>
	</g>
	<g transform="translate(486,756) scale(4.635)">
		<rect x="0" y="0" width="6" height="6"/>
	</g>
	<g transform="translate(513,756) scale(4.635)">
		<rect x="0" y="0" width="6" height="6"/>
	</g>
	<g transform="translate(540,756) scale(4.635)">
		<rect x="0" y="0" width="6" height="6"/>
	</g>
	<g transform="translate(567,756) scale(4.635)">
		<path d="M6,6H0V0h3c1.7,0,3,1.3,3,3V6z"/>
	</g>
	<g transform="translate(648,756) scale(4.635)">
		<path d="M6,6H3C1.3,6,0,4.7,0,3V0h6V6z"/>
	</g>
	<g transform="translate(675,756) scale(4.635)">
		<rect x="0" y="0" width="6" height="6"/>
	</g>
	<g transform="translate(837,756) scale(4.635)">
		<rect x="0" y="0" width="6" height="6"/>
	</g>
	<g transform="translate(891,756) scale(4.635)">
		<path d="M6,6H0V3c0-1.7,1.3-3,3-3l0,0c1.7,0,3,1.3,3,3V6z"/>
	</g>
	<g transform="translate(297,783) scale(4.635)">
		<circle cx="3" cy="3" r="3"/>
	</g>
	<g transform="translate(378,783) scale(4.635)">
		<path d="M6,6H3C1.3,6,0,4.7,0,3l0,0c0-1.7,1.3-3,3-3h3V6z"/>
	</g>
	<g transform="translate(405,783) scale(4.635)">
		<rect x="0" y="0" width="6" height="6"/>
	</g>
	<g transform="translate(432,783) scale(4.635)">
		<rect x="0" y="0" width="6" height="6"/>
	</g>
	<g transform="translate(459,783) scale(4.635)">
		<rect x="0" y="0" width="6" height="6"/>
	</g>
	<g transform="translate(513,783) scale(4.635)">
		<path d="M3,6L3,6C1.3,6,0,4.7,0,3V0h6v3C6,4.7,4.7,6,3,6z"/>
	</g>
	<g transform="translate(567,783) scale(4.635)">
		<rect x="0" y="0" width="6" height="6"/>
	</g>
	<g transform="translate(594,783) scale(4.635)">
		<path d="M3,6H0V0h3c1.7,0,3,1.3,3,3l0,0C6,4.7,4.7,6,3,6z"/>
	</g>
	<g transform="translate(675,783) scale(4.635)">
		<path d="M6,6H3C1.3,6,0,4.7,0,3V0h6V6z"/>
	</g>
	<g transform="translate(837,783) scale(4.635)">
		<rect x="0" y="0" width="6" height="6"/>
	</g>
	<g transform="translate(864,783) scale(4.635)">
		<rect x="0" y="0" width="6" height="6"/>
	</g>
	<g transform="translate(891,783) scale(4.635)">
		<rect x="0" y="0" width="6" height="6"/>
	</g>
	<g transform="translate(918,783) scale(4.635)">
		<path d="M6,6H0V0h3c1.7,0,3,1.3,3,3V6z"/>
	</g>
	<g transform="translate(270,810) scale(4.635)">
		<path d="M6,6H0V3c0-1.7,1.3-3,3-3l0,0c1.7,0,3,1.3,3,3V6z"/>
	</g>
	<g transform="translate(351,810) scale(4.635)">
		<path d="M6,6H0V3c0-1.7,1.3-3,3-3l0,0c1.7,0,3,1.3,3,3V6z"/>
	</g>
	<g transform="translate(432,810) scale(4.635)">
		<path d="M6,6H3C1.3,6,0,4.7,0,3V0h6V6z"/>
	</g>
	<g transform="translate(459,810) scale(4.635)">
		<rect x="0" y="0" width="6" height="6"/>
	</g>
	<g transform="translate(486,810) scale(4.635)">
		<path d="M6,6H0V0h3c1.7,0,3,1.3,3,3V6z"/>
	</g>
	<g transform="translate(540,810) scale(4.635)">
		<path d="M6,6H3C1.3,6,0,4.7,0,3l0,0c0-1.7,1.3-3,3-3h3V6z"/>
	</g>
	<g transform="translate(567,810) scale(4.635)">
		<rect x="0" y="0" width="6" height="6"/>
	</g>
	<g transform="translate(621,810) scale(4.635)">
		<path d="M6,6H0V3c0-1.7,1.3-3,3-3h3V6z"/>
	</g>
	<g transform="translate(648,810) scale(4.635)">
		<path d="M3,6H0V0h3c1.7,0,3,1.3,3,3l0,0C6,4.7,4.7,6,3,6z"/>
	</g>
	<g>
		<g transform="translate(702,702) scale(4.635)">
			<rect x="0" y="0" class="st1" width="6" height="6"/>
		</g>
		<g transform="translate(729,702) scale(4.635)">
			<rect x="0" y="0" class="st1" width="6" height="6"/>
		</g>
		<g transform="translate(756,702) scale(4.635)">
			<rect x="0" y="0" class="st1" width="6" height="6"/>
		</g>
		<g transform="translate(783,702) scale(4.635)">
			<rect x="0" y="0" class="st1" width="6" height="6"/>
		</g>
		<g transform="translate(810,702) scale(4.635)">
			<rect x="0" y="0" class="st1" width="6" height="6"/>
		</g>
		<g transform="translate(702,729) scale(4.635)">
			<rect x="0" y="0" class="st1" width="6" height="6"/>
		</g>
		<g transform="translate(810,729) scale(4.635)">
			<rect x="0" y="0" class="st1" width="6" height="6"/>
		</g>
		<g transform="translate(702,756) scale(4.635)">
			<rect x="0" y="0" class="st1" width="6" height="6"/>
		</g>
		<g transform="translate(756,756) scale(4.635)">
			<circle class="st1" cx="3" cy="3" r="3"/>
		</g>
		<g transform="translate(810,756) scale(4.635)">
			<rect x="0" y="0" class="st1" width="6" height="6"/>
		</g>
		<g transform="translate(702,783) scale(4.635)">
			<rect x="0" y="0" class="st1" width="6" height="6"/>
		</g>
		<g transform="translate(810,783) scale(4.635)">
			<rect x="0" y="0" class="st1" width="6" height="6"/>
		</g>
		<g transform="translate(702,810) scale(4.635)">
			<rect x="0" y="0" class="st1" width="6" height="6"/>
		</g>
		<g transform="translate(729,810) scale(4.635)">
			<rect x="0" y="0" class="st1" width="6" height="6"/>
		</g>
		<g transform="translate(756,810) scale(4.635)">
			<rect x="0" y="0" class="st1" width="6" height="6"/>
		</g>
		<g transform="translate(783,810) scale(4.635)">
			<rect x="0" y="0" class="st1" width="6" height="6"/>
		</g>
		<g transform="translate(810,810) scale(4.635)">
			<rect x="0" y="0" class="st1" width="6" height="6"/>
		</g>
	</g>
	<g transform="translate(891,810) scale(4.635)">
		<path d="M6,6H3C1.3,6,0,4.7,0,3V0h6V6z"/>
	</g>
	<g transform="translate(918,810) scale(4.635)">
		<rect x="0" y="0" width="6" height="6"/>
	</g>
	<g transform="translate(270,837) scale(4.635)">
		<rect x="0" y="0" width="6" height="6"/>
	</g>
	<g transform="translate(297,837) scale(4.635)">
		<path d="M6,6H0V0h3c1.7,0,3,1.3,3,3V6z"/>
	</g>
	<g transform="translate(351,837) scale(4.635)">
		<path d="M6,6H3C1.3,6,0,4.7,0,3V0h6V6z"/>
	</g>
	<g transform="translate(378,837) scale(4.635)">
		<path d="M3,6H0V0h3c1.7,0,3,1.3,3,3l0,0C6,4.7,4.7,6,3,6z"/>
	</g>
	<g transform="translate(459,837) scale(4.635)">
		<rect x="0" y="0" width="6" height="6"/>
	</g>
	<g transform="translate(486,837) scale(4.635)">
		<rect x="0" y="0" width="6" height="6"/>
	</g>
	<g transform="translate(567,837) scale(4.635)">
		<path d="M3,6L3,6C1.3,6,0,4.7,0,3V0h6v3C6,4.7,4.7,6,3,6z"/>
	</g>
	<g transform="translate(621,837) scale(4.635)">
		<rect x="0" y="0" width="6" height="6"/>
	</g>
	<g transform="translate(675,837) scale(4.635)">
		<path d="M6,6H0V3c0-1.7,1.3-3,3-3h3V6z"/>
	</g>
	<g transform="translate(702,837) scale(4.635)">
		<rect x="0" y="0" width="6" height="6"/>
	</g>
	<g transform="translate(729,837) scale(4.635)">
		<rect x="0" y="0" width="6" height="6"/>
	</g>
	<g transform="translate(810,837) scale(4.635)">
		<path d="M6,6H3C1.3,6,0,4.7,0,3V0h6V6z"/>
	</g>
	<g transform="translate(837,837) scale(4.635)">
		<rect x="0" y="0" width="6" height="6"/>
	</g>
	<g transform="translate(864,837) scale(4.635)">
		<path d="M3,6H0V0h3c1.7,0,3,1.3,3,3l0,0C6,4.7,4.7,6,3,6z"/>
	</g>
	<g transform="translate(918,837) scale(4.635)">
		<path d="M3,6L3,6C1.3,6,0,4.7,0,3V0h6v3C6,4.7,4.7,6,3,6z"/>
	</g>
	<g transform="translate(270,864) scale(4.635)">
		<path d="M6,6H3C1.3,6,0,4.7,0,3V0h6V6z"/>
	</g>
	<g transform="translate(297,864) scale(4.635)">
		<rect x="0" y="0" width="6" height="6"/>
	</g>
	<g transform="translate(324,864) scale(4.635)">
		<path d="M6,6H0V0h3c1.7,0,3,1.3,3,3V6z"/>
	</g>
	<g transform="translate(432,864) scale(4.635)">
		<path d="M6,6H0V3c0-1.7,1.3-3,3-3h3V6z"/>
	</g>
	<g transform="translate(459,864) scale(4.635)">
		<rect x="0" y="0" width="6" height="6"/>
	</g>
	<g transform="translate(486,864) scale(4.635)">
		<path d="M3,6H0V0h6v3C6,4.7,4.7,6,3,6z"/>
	</g>
	<g transform="translate(540,864) scale(4.635)">
		<path d="M6,6H0V3c0-1.7,1.3-3,3-3l0,0c1.7,0,3,1.3,3,3V6z"/>
	</g>
	<g transform="translate(594,864) scale(4.635)">
		<path d="M6,6H0V3c0-1.7,1.3-3,3-3h3V6z"/>
	</g>
	<g transform="translate(621,864) scale(4.635)">
		<rect x="0" y="0" width="6" height="6"/>
	</g>
	<g transform="translate(648,864) scale(4.635)">
		<rect x="0" y="0" width="6" height="6"/>
	</g>
	<g transform="translate(675,864) scale(4.635)">
		<rect x="0" y="0" width="6" height="6"/>
	</g>
	<g transform="translate(702,864) scale(4.635)">
		<rect x="0" y="0" width="6" height="6"/>
	</g>
	<g transform="translate(729,864) scale(4.635)">
		<rect x="0" y="0" width="6" height="6"/>
	</g>
	<g transform="translate(756,864) scale(4.635)">
		<path d="M3,6H0V0h3c1.7,0,3,1.3,3,3l0,0C6,4.7,4.7,6,3,6z"/>
	</g>
	<g transform="translate(297,891) scale(4.635)">
		<rect x="0" y="0" width="6" height="6"/>
	</g>
	<g transform="translate(324,891) scale(4.635)">
		<path d="M3,6H0V0h6v3C6,4.7,4.7,6,3,6z"/>
	</g>
	<g transform="translate(405,891) scale(4.635)">
		<path d="M6,6H3C1.3,6,0,4.7,0,3l0,0c0-1.7,1.3-3,3-3h3V6z"/>
	</g>
	<g transform="translate(432,891) scale(4.635)">
		<rect x="0" y="0" width="6" height="6"/>
	</g>
	<g transform="translate(459,891) scale(4.635)">
		<rect x="0" y="0" width="6" height="6"/>
	</g>
	<g transform="translate(513,891) scale(4.635)">
		<path d="M6,6H0V3c0-1.7,1.3-3,3-3h3V6z"/>
	</g>
	<g transform="translate(540,891) scale(4.635)">
		<rect x="0" y="0" width="6" height="6"/>
	</g>
	<g transform="translate(567,891) scale(4.635)">
		<rect x="0" y="0" width="6" height="6"/>
	</g>
	<g transform="translate(594,891) scale(4.635)">
		<rect x="0" y="0" width="6" height="6"/>
	</g>
	<g transform="translate(729,891) scale(4.635)">
		<rect x="0" y="0" width="6" height="6"/>
	</g>
	<g transform="translate(783,891) scale(4.635)">
		<circle cx="3" cy="3" r="3"/>
	</g>
	<g transform="translate(837,891) scale(4.635)">
		<path d="M6,6H3C1.3,6,0,4.7,0,3l0,0c0-1.7,1.3-3,3-3h3V6z"/>
	</g>
	<g transform="translate(864,891) scale(4.635)">
		<path d="M3,6H0V0h3c1.7,0,3,1.3,3,3l0,0C6,4.7,4.7,6,3,6z"/>
	</g>
	<g transform="translate(297,918) scale(4.635)">
		<path d="M3,6L3,6C1.3,6,0,4.7,0,3V0h6v3C6,4.7,4.7,6,3,6z"/>
	</g>
	<g transform="translate(351,918) scale(4.635)">
		<circle cx="3" cy="3" r="3"/>
	</g>
	<g transform="translate(432,918) scale(4.635)">
		<path d="M6,6H3C1.3,6,0,4.7,0,3V0h6V6z"/>
	</g>
	<g transform="translate(459,918) scale(4.635)">
		<path d="M3,6H0V0h6v3C6,4.7,4.7,6,3,6z"/>
	</g>
	<g transform="translate(513,918) scale(4.635)">
		<path d="M3,6L3,6C1.3,6,0,4.7,0,3V0h6v3C6,4.7,4.7,6,3,6z"/>
	</g>
	<g transform="translate(594,918) scale(4.635)">
		<path d="M3,6L3,6C1.3,6,0,4.7,0,3V0h6v3C6,4.7,4.7,6,3,6z"/>
	</g>
	<g transform="translate(675,918) scale(4.635)">
		<path d="M6,6H3C1.3,6,0,4.7,0,3l0,0c0-1.7,1.3-3,3-3h3V6z"/>
	</g>
	<g transform="translate(702,918) scale(4.635)">
		<rect x="0" y="0" width="6" height="6"/>
	</g>
	<g transform="translate(729,918) scale(4.635)">
		<path d="M3,6H0V0h6v3C6,4.7,4.7,6,3,6z"/>
	</g>
	<g transform="translate(891,918) scale(4.635)">
		<circle cx="3" cy="3" r="3"/>
	</g>
</g>
<g>
	<g>
		<g transform="translate(54,54)">
			<g transform="scale(13.5)">
				<path class="st2" d="M4.5,14h5.1C12,14,14,12,14,9.6V4.5C14,2,12,0,9.5,0H4.4C2,0,0,2,0,4.4v5.1C0,12,2,14,4.5,14z M12,4.8v4.4
					c0,1.5-1.3,2.8-2.8,2.8H4.8C3.2,12,2,10.8,2,9.2V4.8C2,3.3,3.3,2,4.8,2h4.4C10.8,2,12,3.2,12,4.8z"/>
			</g>
		</g>
		<g transform="translate(108,108)">
			<g transform="scale(13.5)">
				<path class="st2" d="M6,1.7v2.7C6,5.2,5.2,6,4.3,6H1.7C0.7,6,0,5.3,0,4.3V1.7C0,0.8,0.8,0,1.7,0h2.7C5.3,0,6,0.7,6,1.7z"/>
			</g>
		</g>
	</g>
	<g>
		<g transform="translate(756,54)">
			<g transform="scale(13.5)">
				<path class="st3" d="M4.5,14h5.1C12,14,14,12,14,9.6V4.5C14,2,12,0,9.5,0H4.4C2,0,0,2,0,4.4v5.1C0,12,2,14,4.5,14z M12,4.8v4.4
					c0,1.5-1.3,2.8-2.8,2.8H4.8C3.2,12,2,10.8,2,9.2V4.8C2,3.3,3.3,2,4.8,2h4.4C10.8,2,12,3.2,12,4.8z"/>
			</g>
		</g>
		<g transform="translate(810,108)">
			<g transform="scale(13.5)">
				<path class="st3" d="M6,1.7v2.7C6,5.2,5.2,6,4.3,6H1.7C0.7,6,0,5.3,0,4.3V1.7C0,0.8,0.8,0,1.7,0h2.7C5.3,0,6,0.7,6,1.7z"/>
			</g>
		</g>
	</g>
	<g>
		<g transform="translate(54,756)">
			<g transform="scale(13.5)">
				<path class="st4" d="M4.5,14h5.1C12,14,14,12,14,9.6V4.5C14,2,12,0,9.5,0H4.4C2,0,0,2,0,4.4v5.1C0,12,2,14,4.5,14z M12,4.8v4.4
					c0,1.5-1.3,2.8-2.8,2.8H4.8C3.2,12,2,10.8,2,9.2V4.8C2,3.3,3.3,2,4.8,2h4.4C10.8,2,12,3.2,12,4.8z"/>
			</g>
		</g>
		<g transform="translate(108,810)">
			<g transform="scale(13.5)">
				<path class="st4" d="M6,1.7v2.7C6,5.2,5.2,6,4.3,6H1.7C0.7,6,0,5.3,0,4.3V1.7C0,0.8,0.8,0,1.7,0h2.7C5.3,0,6,0.7,6,1.7z"/>
			</g>
		</g>
	</g>
</g>
</svg>
