<?xml version="1.0" encoding="utf-8"?>
<!-- Generator: Adobe Illustrator 26.3.1, SVG Export Plug-In . SVG Version: 6.00 Build 0)  -->
<svg version="1.1" id="Layer_1" xmlns="http://www.w3.org/2000/svg" xmlns:xlink="http://www.w3.org/1999/xlink" x="0px" y="0px"
	 viewBox="0 0 48 48" style="enable-background:new 0 0 48 48;" xml:space="preserve">
<style type="text/css">
	.st0{fill:#2135A6;}
</style>
<g id="Shopicon">
	<path class="st0" d="M29.1,24.7c3.5-1.8,5.9-5.5,5.9-9.7c0-6.1-4.9-11-11-11S13,8.9,13,15c0,4.2,2.4,7.9,5.9,9.7
		C10.9,27.1,5,34.8,5,44h38C43,34.8,37.1,27.1,29.1,24.7z M15,15c0-5,4-9,9-9s9,4,9,9s-4,9-9,9S15,20,15,15z M24,26
		c8.7,0,16,7,16.9,16H7.1C8,33,15.3,26,24,26z"/>
</g>
</svg>
