<?xml version="1.0" encoding="utf-8"?>
<!-- Generator: Adobe Illustrator 26.3.1, SVG Export Plug-In . SVG Version: 6.00 Build 0)  -->
<svg version="1.1" id="Layer_1" xmlns="http://www.w3.org/2000/svg" xmlns:xlink="http://www.w3.org/1999/xlink" x="0px" y="0px"
	 viewBox="0 0 48 48" style="enable-background:new 0 0 48 48;" xml:space="preserve">
<style type="text/css">
	.st0{fill:#2135A6;}
</style>
<g id="Shopicon">
	<path class="st0" d="M24,18c-3.3,0-6,2.7-6,6s2.7,6,6,6s6-2.7,6-6S27.3,18,24,18z M24,26c-1.1,0-2-0.9-2-2s0.9-2,2-2s2,0.9,2,2
		S25.1,26,24,26z"/>
	<path class="st0" d="M39.3,11c-2.4,0.6-4.8,1.2-6.5,1.2c-0.7,0-1.3-0.1-1.7-0.3c-1.5-0.8-2.3-4.3-3.2-7.5C26.6,4.1,25.3,4,24,4
		s-2.6,0.1-3.8,0.4c-0.9,3.2-1.8,6.7-3.2,7.5c-0.4,0.2-1,0.3-1.7,0.3c-1.7,0-4.2-0.7-6.5-1.2c-1.6,1.9-2.9,4-3.7,6.3
		c2.3,2.4,4.9,4.9,4.9,6.7S7.3,28.3,5,30.7C5.8,33,7.1,35.2,8.7,37c2.4-0.6,4.8-1.2,6.5-1.2c0.7,0,1.3,0.1,1.7,0.3
		c1.5,0.8,2.3,4.3,3.2,7.5c1.2,0.2,2.5,0.4,3.8,0.4s2.6-0.1,3.8-0.4c0.9-3.2,1.8-6.7,3.2-7.5c0.4-0.2,1-0.3,1.7-0.3
		c1.7,0,4.2,0.7,6.5,1.2c1.6-1.8,2.9-4,3.7-6.3c-2.3-2.4-4.9-4.9-4.9-6.7c0-1.8,2.5-4.3,4.9-6.7C42.2,15,40.9,12.8,39.3,11z
		 M34.1,24c0,2.7,1.9,5.1,4.1,7.5c-0.2,0.3-0.4,0.7-0.6,1c-1.7-0.4-3.4-0.7-4.9-0.7c-1.4,0-2.6,0.3-3.7,0.9
		c-2.4,1.4-3.4,4.1-4.4,7.3c-0.2,0-0.5,0-0.7,0s-0.5,0-0.7,0c-1-3.3-2-6-4.4-7.3c-1-0.6-2.2-0.9-3.7-0.9c-1.5,0-3.2,0.3-4.9,0.7
		c-0.2-0.3-0.4-0.6-0.6-1c2.3-2.4,4.1-4.8,4.1-7.5c0-2.7-1.9-5.1-4.1-7.5c0.2-0.3,0.4-0.7,0.6-1c1.7,0.4,3.4,0.7,4.9,0.7
		c1.4,0,2.6-0.3,3.7-0.9c2.4-1.4,3.4-4.1,4.4-7.3c0.2,0,0.5,0,0.7,0s0.5,0,0.7,0c1,3.3,2,6,4.4,7.3c1,0.6,2.2,0.9,3.7,0.9
		c1.5,0,3.2-0.3,4.9-0.7c0.2,0.3,0.4,0.6,0.6,1C36,18.9,34.1,21.3,34.1,24z"/>
</g>
</svg>
