<?xml version="1.0" encoding="utf-8"?>
<!-- Generator: Adobe Illustrator 26.3.1, SVG Export Plug-In . SVG Version: 6.00 Build 0)  -->
<svg version="1.1" id="Layer_1" xmlns="http://www.w3.org/2000/svg" xmlns:xlink="http://www.w3.org/1999/xlink" x="0px" y="0px"
	 viewBox="0 0 48 48" style="enable-background:new 0 0 48 48;" xml:space="preserve">
<style type="text/css">
	.st0{fill:none;}
	.st1{fill:#2135A6;}
</style>
<path class="st0" d="M0,0h48v48H0V0z"/>
<g id="Shopicon">
	<path class="st1" d="M24,30c3.3,0,6-2.7,6-6s-2.7-6-6-6s-6,2.7-6,6S20.7,30,24,30z M24,20c2.2,0,4,1.8,4,4s-1.8,4-4,4s-4-1.8-4-4
		S21.8,20,24,20z"/>
	<path class="st1" d="M8.7,37c2.4-0.6,4.8-1.2,6.5-1.2c0.7,0,1.3,0.1,1.7,0.3c1.5,0.8,2.3,4.3,3.2,7.5c1.2,0.2,2.5,0.4,3.8,0.4
		s2.6-0.1,3.8-0.4c0.9-3.2,1.8-6.7,3.2-7.5c0.4-0.2,1-0.3,1.7-0.3c1.7,0,4.2,0.7,6.5,1.2c1.6-1.8,2.9-4,3.7-6.3
		c-2.3-2.4-4.9-4.9-4.9-6.7c0-1.8,2.5-4.3,4.9-6.7c-0.8-2.3-2.1-4.5-3.7-6.3c-2.4,0.6-4.8,1.2-6.5,1.2c-0.7,0-1.3-0.1-1.7-0.3
		c-1.5-0.8-2.3-4.3-3.2-7.5C26.6,4.1,25.3,4,24,4s-2.6,0.1-3.8,0.4c-0.9,3.2-1.8,6.7-3.2,7.5c-0.4,0.2-1,0.3-1.7,0.3
		c-1.7,0-4.2-0.7-6.5-1.2c-1.6,1.9-2.9,4-3.7,6.3c2.3,2.4,4.9,4.9,4.9,6.7S7.3,28.3,5,30.7C5.8,33,7.1,35.2,8.7,37z M7.3,16.8
		c0.6-1.3,1.3-2.5,2.1-3.6c2,0.5,4.1,1,5.8,1c1.1,0,2-0.2,2.7-0.6c2-1.1,2.9-4.1,3.8-7.5C22.5,6,23.3,6,24,6s1.5,0,2.2,0.1
		c1,3.4,1.8,6.3,3.8,7.5c0.7,0.4,1.6,0.6,2.7,0.6c1.7,0,3.7-0.5,5.8-1c0.8,1.1,1.6,2.3,2.1,3.6c-2.4,2.5-4.5,4.8-4.5,7.2
		c0,2.4,2.1,4.7,4.5,7.2c-0.6,1.3-1.3,2.5-2.1,3.6c-2-0.5-4.1-1-5.8-1c-1.1,0-2,0.2-2.7,0.6c-2,1.1-2.9,4-3.8,7.5
		C25.5,42,24.7,42,24,42s-1.5,0-2.2-0.1c-1-3.4-1.8-6.3-3.8-7.5c-0.7-0.4-1.6-0.6-2.7-0.6c-1.7,0-3.7,0.5-5.8,1
		c-0.8-1.1-1.6-2.3-2.1-3.6c2.4-2.5,4.5-4.8,4.5-7.2C11.9,21.6,9.7,19.3,7.3,16.8z"/>
</g>
</svg>
