<?xml version="1.0" encoding="utf-8"?>
<!-- Generator: Adobe Illustrator 26.3.1, SVG Export Plug-In . SVG Version: 6.00 Build 0)  -->
<svg version="1.1" id="Layer_1" xmlns="http://www.w3.org/2000/svg" xmlns:xlink="http://www.w3.org/1999/xlink" x="0px" y="0px"
	 viewBox="0 0 48 48" style="enable-background:new 0 0 48 48;" xml:space="preserve">
<style type="text/css">
	.st0{fill:#2135A6;}
</style>
<g id="Shopicon">
	<path class="st0" d="M31.3,25.5c2.9-2.2,4.7-5.6,4.7-9.5c0-6.6-5.4-12-12-12S12,9.4,12,16c0,3.9,1.9,7.3,4.7,9.5
		C9.8,28.5,5,35.7,5,44h38C43,35.7,38.2,28.5,31.3,25.5z M16,16c0-4.4,3.6-8,8-8s8,3.6,8,8s-3.6,8-8,8S16,20.4,16,16z M24,28
		c7,0,12.9,5.1,14.5,12H9.5C11.1,33.1,17,28,24,28z"/>
</g>
</svg>
